<?xml version="1.0" standalone="no"?>
<!DOCTYPE svg PUBLIC "-//W3C//DTD SVG 20010904//EN"
 "http://www.w3.org/TR/2001/REC-SVG-20010904/DTD/svg10.dtd">
<svg version="1.0" xmlns="http://www.w3.org/2000/svg"
 width="128.000000pt" height="33.000000pt" viewBox="0 0 128.000000 33.000000"
 preserveAspectRatio="xMidYMid meet">

<g transform="translate(0.000000,33.000000) scale(0.100000,-0.100000)"
fill="#000000" stroke="none">
<path d="M130 160 l0 -110 55 0 54 0 3 68 3 67 455 5 c250 3 456 7 458 8 2 1
2 17 0 35 l-3 32 -512 3 -513 2 0 -110z m880 70 c0 -6 -133 -10 -379 -10 -243
0 -382 4 -386 10 -4 7 125 10 379 10 251 0 386 -4 386 -10z"/>
<path d="M290 110 l0 -60 30 0 30 0 0 60 0 60 -30 0 -30 0 0 -60z"/>
<path d="M390 110 l0 -60 31 0 c22 0 32 5 36 20 7 26 20 26 28 0 5 -16 15 -20
47 -20 32 0 38 3 30 13 -7 8 -9 29 -5 51 8 49 -3 56 -94 56 l-73 0 0 -60z
m110 20 c0 -5 -9 -10 -20 -10 -11 0 -20 5 -20 10 0 6 9 10 20 10 11 0 20 -4
20 -10z"/>
<path d="M600 110 l0 -60 70 0 c56 0 70 3 70 15 0 10 -11 15 -35 15 -19 0 -35
5 -35 10 0 6 16 10 36 10 46 0 41 23 -7 31 l-34 6 38 2 c26 1 37 6 37 16 0 12
-14 15 -70 15 l-70 0 0 -60z"/>
<path d="M780 110 l0 -60 65 0 c51 0 65 3 65 15 0 10 -10 15 -30 15 -29 0 -30
2 -30 45 0 45 0 45 -35 45 l-35 0 0 -60z"/>
<path d="M930 110 l0 -61 62 3 c67 3 93 24 36 30 -31 3 -33 5 -36 46 -3 39 -5
42 -33 42 -29 0 -29 0 -29 -60z"/>
<path d="M1080 110 l0 -60 30 0 30 0 0 60 0 60 -30 0 -30 0 0 -60z"/>
</g>
</svg>
